Jennifer's Body.2009.R5.AAC.H264-LTT.mp4
****************************************

> TiTLE......[ Jennifer's Body
> YEAR.......[ 2009
> GENRE......[ Comedy | Horror | Thriller
> RUNTiME....[ 1:38:14
> iMDB RATE..[ User Rating: 5.6/10 (5,976 votes)
> iMDB URL...[ http://www.imdb.com/title/tt1131734/

> AUDiO......[ MPEG-4 AAC LC VBR 128 kbit/s 48000Hz 2 chnls
> LANGUAGE...[ ENGLISH
> SUBS.......[ None
> ViDEO......[ 1551 kbps H.264/MPEG-4 AVC 23.976 Fps
> RESOLUTiON.[ 1120 x 608
> DAR........[ 1.842 (35:19)
> SiZE.......[ 1.15 GB (1,178 MB / 1,207,079 KB)
************************************************

Video:
*****
Duration                         : 1h 38mn
Bit rate mode                    : Variable
Bit rate                         : 1 551 Kbps
Maximum bit rate                 : 13.2 Mbps
Width                            : 1 120 pixels
Height                           : 608 pixels
Display aspect ratio             : 16:9
Frame rate mode                  : Constant
Frame rate                       : 23.976 fps
Resolution                       : 24 bits
Colorimetry                      : 4:2:0
Scan type                        : Progressive
Bits/(Pixel*Frame)               : 0.095
Stream size                      : 1.06 GiB (92%)
Tagged date                      : UTC 2009-11-02 15:23:32

Audio:
*****
Format                           : AAC
Format/Info                      : Advanced Audio Codec
Format version                   : Version 4
Format profile                   : LC
Duration                         : 1h 34mn
Bit rate mode                    : Variable
Bit rate                         : 128 Kbps
Maximum bit rate                 : 214 Kbps
Channel(s)                       : 2 channels
Channel positions                : L R
Sampling rate                    : 48.0 KHz
Resolution                       : 16 bits
Stream size                      : 86.4 MiB (7%)
Encoded date                     : UTC 2009-11-02 15:23:22
**********************************************************

included the sample.

Enjoy.
LTT
